PathFileType	4	(X/Y/Z)	OpenSim_Sub04_EMGBaseline_Gyro.trc
DataRate	CameraRate	NumFrames	NumMarkers	Units	OrigDataRate	OrigDataStartFrame	OrigNumFrames
100	100	34	8	m	100	5956	7941
Frame#	Time	torso_imu_offset_imu	pelvis_imu_offset_imu	tibia_r_imu_offset_imu	femur_r_imu_offset_imu	tibia_l_imu_offset_imu	femur_l_imu_offset_imu	toes_r_imu_offset_imu	toes_l_imu_offset_imu
				X1	Y1	Z1	X2	Y2	Z2	X3	Y3	Z3	X4	Y4	Z4	X5	Y5	Z5	X6	Y6	Z6	X7	Y7	Z7	X8		Y8	Z8	

5956	59.55000000	-0.01003177	0.19462772	-0.04259581	0.15900646	0.13187459	0.22946913	-0.45548185	0.91092401	4.20832968	-0.19011653	0.16283102	0.05101476	0.38609582	-0.05411490	0.59319406	0.21506220	-0.25602656	0.58934893	-0.30947044	3.62998887	1.51940575	0.14597198	-0.12836208	0.18604327
5957	59.56000000	-0.03845481	0.17142742	-0.03606410	0.18055967	0.14478454	0.21507466	-0.55447540	0.93090088	4.16859957	-0.23635930	0.18020769	-0.04364711	0.41543949	-0.05107425	0.59258123	0.15950354	-0.25458880	0.62131659	-0.28664266	3.73507173	1.47268483	0.13160091	-0.14239183	0.19530606
5958	59.57000000	-0.07388927	0.16526652	-0.03267594	0.19638022	0.14553400	0.18840582	-0.60947099	0.91344250	4.09645006	-0.20728031	0.20352103	-0.14456687	0.42219969	-0.04740592	0.61272902	0.12206708	-0.24362427	0.64754055	-0.34468237	3.66063113	1.38151989	0.12321816	-0.11622172	0.19194172
5959	59.58000000	-0.10382024	0.15136701	-0.02213719	0.21856963	0.13421601	0.17489652	-0.55150452	0.79536222	4.01593153	-0.16520741	0.20946593	-0.23996738	0.44093712	-0.03151520	0.63916730	0.09265644	-0.24013850	0.65263777	-0.43276286	3.48038494	1.26317300	0.10088318	-0.16900766	0.21725219
5960	59.59000000	-0.12210023	0.13663183	-0.01012181	0.22792014	0.11558229	0.15541622	-0.51323026	0.63716588	3.89607022	-0.12281500	0.19492068	-0.33016912	0.40966337	-0.01802546	0.65330382	0.07755353	-0.24398977	0.65764138	-0.47818478	3.34493301	1.16255933	0.09937806	-0.19812529	0.23564856
5961	59.60000000	-0.14980566	0.12176103	-0.00864685	0.23529540	0.11597428	0.15000516	-0.54590811	0.50728269	3.70686810	-0.05611977	0.18127122	-0.41097012	0.37166217	-0.01200032	0.64871562	0.05954831	-0.24498064	0.65199337	-0.45302894	3.26952332	1.06448638	0.06770008	-0.20308998	0.26713660
5962	59.61000000	-0.17904620	0.10966534	-0.00784469	0.23957870	0.12302276	0.13114635	-0.62437006	0.37745137	3.48819616	0.05082093	0.17044899	-0.49057422	0.36469946	-0.01514341	0.67591047	0.05350294	-0.22360173	0.66560095	-0.36192953	3.13083058	0.97117128	0.06178195	-0.24277687	0.30022044
5963	59.62000000	-0.20106139	0.10844684	0.00087239	0.24136261	0.14224088	0.10925576	-0.71304844	0.26246760	3.27915198	0.18739629	0.17993997	-0.52948271	0.32644718	-0.01856640	0.71220786	0.05104719	-0.19715109	0.66743234	-0.32154646	2.92506887	0.88433667	0.06435867	-0.24879974	0.28168857
5964	59.63000000	-0.21489843	0.11154034	0.01681724	0.24678173	0.14751994	0.08208365	-0.78654840	0.17303564	3.06107566	0.29203564	0.17191808	-0.51137124	0.27521528	0.00724013	0.75024204	0.05260401	-0.15731055	0.66674282	-0.29733641	2.72547658	0.81437497	0.08496390	-0.31060876	0.27345885
5965	59.64000000	-0.23015803	0.11195812	0.03592053	0.25187720	0.15016840	0.05560003	-0.84747580	0.11611042	2.83937424	0.36575387	0.12855661	-0.44410205	0.26523934	0.02496775	0.78274216	0.07505249	-0.11838831	0.65527500	-0.23941782	2.55000372	0.73454414	0.14225922	-0.34464227	0.23364366
5966	59.65000000	-0.23944554	0.10890960	0.05732722	0.25552119	0.14495184	0.02390659	-0.90180347	0.06525856	2.61880915	0.39828772	0.05869989	-0.34840343	0.24999444	0.03294350	0.81611750	0.09666925	-0.08778187	0.62653737	-0.10105451	2.37252609	0.64862391	0.17239887	-0.39552317	0.20532481
5967	59.66000000	-0.24995392	0.10850387	0.08336493	0.26733202	0.11980136	-0.00877771	-0.88017488	0.04069423	2.38127461	0.38178394	-0.04273686	-0.26283224	0.24772694	0.05234299	0.85100601	0.09633876	-0.06810222	0.60973581	0.06654898	2.13998049	0.59015905	0.22998262	-0.42312040	0.17191151
5968	59.67000000	-0.25508428	0.10188096	0.10480273	0.27556828	0.07839267	-0.03336232	-0.66614801	0.06561098	2.12723215	0.28696416	-0.17388702	-0.20617305	0.29816463	0.04948970	0.87600284	0.09827787	-0.06485318	0.62362985	0.13956323	1.85340770	0.58265854	0.27334408	-0.47812298	0.15895740
5969	59.68000000	-0.26222753	0.09711173	0.12859756	0.27223185	0.03042322	-0.05960286	-0.35894442	0.06536063	1.83837634	0.12502789	-0.28757938	-0.17422988	0.37187962	0.07207304	0.88749930	0.10319562	-0.06178756	0.63755461	0.08998748	1.55509455	0.60306638	0.34885796	-0.53375665	0.15721201
5970	59.69000000	-0.27138923	0.08759629	0.14858017	0.26483112	0.00555484	-0.08093955	-0.10063310	0.03387806	1.50705253	-0.07744372	-0.34996108	-0.16749746	0.40921341	0.08911784	0.91118866	0.08684885	-0.06688612	0.66407258	-0.06124770	1.25629461	0.62006709	0.32279166	-0.59334140	0.17010151
5971	59.70000000	-0.27555998	0.07188289	0.16015502	0.26559164	-0.00441643	-0.09426043	0.11062841	0.00298544	1.14047465	-0.28111940	-0.35283985	-0.17744948	0.40814440	0.10102948	0.95864956	0.11741993	-0.06882443	0.67798361	-0.20306781	0.99142826	0.62624367	0.36135705	-0.69487980	0.19045642
5972	59.71000000	-0.28273355	0.04467805	0.16455381	0.26728400	0.00328997	-0.10133723	0.29927555	0.00020592	0.76421168	-0.43333084	-0.31989998	-0.19731663	0.43868716	0.09048443	1.00331609	0.17964719	-0.04989881	0.67087401	-0.24283809	0.72041475	0.57938887	0.36944367	-0.75466862	0.21047512
5973	59.72000000	-0.28907851	0.00901439	0.15288307	0.28085613	0.01071969	-0.09843969	0.47649045	-0.01355169	0.37982411	-0.49946250	-0.29334712	-0.20742939	0.38835838	0.08154053	1.04881671	0.25728642	-0.00514193	0.63326040	-0.11377981	0.45643428	0.46634554	0.36138707	-0.85205371	0.23810767
5974	59.73000000	-0.29641691	-0.03210500	0.14529578	0.29901962	0.02088699	-0.08962692	0.59104785	-0.07199790	0.00644671	-0.49552895	-0.28346906	-0.20546000	0.33512900	0.10720266	1.06262933	0.34103829	0.04569677	0.58860322	0.01706603	0.19638221	0.33086343	0.42313890	-0.91797752	0.24123070
5975	59.74000000	-0.29907535	-0.07370966	0.14156063	0.32423815	0.03122335	-0.07379188	0.60293613	-0.13883040	-0.34103765	-0.45609807	-0.29582161	-0.19107109	0.24797210	0.11550857	1.09862433	0.41886682	0.09443597	0.52520544	0.18818975	-0.25138590	0.14767435	0.42416818	-0.96595784	0.26326697
5976	59.75000000	-0.30598480	-0.11221249	0.14597518	0.34842681	0.02613586	-0.05102041	0.61473949	-0.19999216	-0.63897899	-0.39903557	-0.28611653	-0.15494164	0.20950972	0.11587724	1.15911749	0.49308573	0.14803304	0.44562725	0.91254255	-1.11559175	-0.14553713	0.45032683	-1.01918681	0.26605155
5977	59.76000000	-0.30299195	-0.14914903	0.14948005	0.37899185	0.01992882	-0.03096299	0.71557585	-0.24658070	-0.87843760	-0.37474582	-0.24466976	-0.11432831	0.18464633	0.11951599	1.23538553	0.55301362	0.19745502	0.35601965	0.81672322	-1.74530914	-0.00811476	0.41199174	-1.09249207	0.28924117
5978	59.77000000	-0.30796088	-0.17505648	0.15814659	0.41364835	-0.00000342	-0.02635178	0.85243894	-0.25995567	-1.11227826	-0.37891143	-0.20734103	-0.06792342	0.16299811	0.11583621	1.30135539	0.64144424	0.26897531	0.28291748	-0.07869554	-2.29007087	0.53162046	0.41283398	-1.18413693	0.29646422
5979	59.78000000	-0.31619409	-0.19865252	0.17129590	0.43720903	-0.01239301	-0.01956134	0.91643143	-0.27935999	-1.39872433	-0.36116980	-0.22089161	-0.06143609	0.14983600	0.10946531	1.37119801	0.68899379	0.36935798	0.21662839	-0.15663039	-2.21703051	0.70349721	0.42218156	-1.27696613	0.29797760
5980	59.79000000	-0.32535296	-0.22684152	0.19049100	0.47648665	-0.03188679	-0.00697826	1.02702163	-0.40220806	-1.57659972	-0.34570063	-0.32245481	-0.12403645	0.10503082	0.10268780	1.46831458	0.72040224	0.47734094	0.12410325	0.56250543	-1.64270869	0.09454580	0.40503799	-1.41189355	0.33373897
5981	59.80000000	-0.34961843	-0.24656658	0.21252411	0.51212879	-0.05090444	-0.00171280	0.86608393	-0.54050981	-1.38694339	-0.31966282	-0.49519465	-0.24479352	0.06984853	0.09291091	1.57658122	0.73768408	0.57579399	0.03927736	0.41166089	-1.79329450	-0.44860411	0.37452524	-1.54802210	0.37448448
5982	59.81000000	-0.37963609	-0.25889914	0.23116236	0.53828275	-0.06113429	0.01996654	0.53698229	-0.57395287	-0.94610141	-0.20895480	-0.65438155	-0.43135927	0.03433152	0.08946308	1.67982376	0.75625181	0.64253683	-0.00824453	-0.47976899	-2.09346481	-0.45160561	0.39235122	-1.73620727	0.42116638
5983	59.82000000	-0.39792834	-0.27954976	0.24641825	0.53695729	-0.05070181	0.04674420	0.40977368	-0.49345509	-0.46040305	-0.00558868	-0.80790848	-0.65598161	-0.01355594	0.06600893	1.76099975	0.74134469	0.68107566	-0.04151580	-0.69869618	-1.98176170	-0.28062506	0.46234613	-1.95054859	0.46532239
5984	59.83000000	-0.40241589	-0.30904496	0.25301079	0.48598253	-0.00090344	0.05642962	0.58709479	-0.36583208	-0.26611171	0.22459482	-0.96263701	-0.82809645	-0.04318219	0.03827320	1.83303499	0.65302388	0.67244244	-0.10312564	-0.56130887	-1.88158751	-0.10830550	0.48850500	-2.21114293	0.51664236
5985	59.84000000	-0.39773421	-0.32461122	0.26423621	0.40131377	0.03668088	0.05725499	0.79468018	-0.26921898	-0.53969968	0.38030144	-0.99817240	-0.88537808	-0.03437813	-0.01075907	1.90583959	0.50217421	0.65493231	-0.20859850	-0.21193901	-1.95795636	0.03079929	0.56000255	-2.48976869	0.51974748
5986	59.85000000	-0.36982669	-0.30456300	0.26718572	0.30886358	0.02095022	0.04780973	0.81602215	-0.25175316	-0.99797711	0.37272722	-0.85512785	-0.78596385	-0.02130506	-0.05340433	1.99924061	0.34427777	0.69039031	-0.35295862	0.27755302	-1.99174204	0.16748377	0.59185946	-2.83135261	0.54317384
5987	59.86000000	-0.32700243	-0.27596846	0.26228460	0.21914998	-0.05144799	0.05115360	0.79618028	-0.18263371	-1.26358810	0.31032943	-0.64459571	-0.55626332	0.02857914	-0.08172662	2.09412083	0.21219161	0.79716088	-0.50507581	1.69304553	-1.62348870	-0.11985978	0.67460079	-3.17658772	0.53511989
5988	59.87000000	-0.30023487	-0.23689213	0.24574980	0.13057676	-0.14235595	0.05712968	0.95517279	-0.06037586	-1.33179117	0.21968478	-0.43842038	-0.28678015	0.04333910	-0.10523428	2.17828573	0.01775807	0.95391395	-0.65429071	1.96776340	-0.70919973	-0.30281143	0.77102580	-3.54273707	0.50267442
5989	59.88000000	-0.27290783	-0.20958110	0.22973681	0.04857901	-0.20714356	0.07513967	1.03921868	0.00304890	-1.32600030	0.10928068	-0.26072358	-0.02606355	-0.00633180	-0.11708073	2.24405721	-0.18501857	1.09875170	-0.79938100	0.44191363	-0.63848043	-0.21578317	0.91996453	-3.91079277	0.48102468
